2steps.ufo
<glyph name="ampersand" format="1">
  <advance width="1000"/>
  <unicode hex="0026"/>
  <outline>
    <contour>
      <point x="191.725" y="0.506836" type="move" smooth="yes"/>
      <point x="196.509" y="0"/>
      <point x="368.374" y="-1.49316"/>
      <point x="368.374" y="-1.49316" type="curve"/>
      <point x="495.757" y="82.3311" type="line"/>
      <point x="643.5" y="273" type="line"/>
    </contour>
    <contour>
      <point x="380.374" y="-4.49316" type="move"/>
      <point x="507.757" y="82.3311" type="line"/>
      <point x="655.5" y="273" type="line"/>
    </contour>
    <contour>
      <point x="246.099" y="800" type="move" smooth="yes"/>
    </contour>
  </outline>
</glyph>
<glyph name="parenleft" format="1">
  <advance width="1000"/>
  <unicode hex="0028"/>
  <outline>
    <contour>
      <point x="273.562" y="765" type="move"/>
      <point x="0" y="491.438" type="line"/>
      <point x="0" y="104.562" type="line"/>
      <point x="273.562" y="-168.999" type="line"/>
    </contour>
  </outline>
</glyph>
<glyph name="parenright" format="1">
  <advance width="1000"/>
  <unicode hex="0029"/>
  <outline>
    <contour>
      <point x="0.0820312" y="0.43457" type="move"/>
      <point x="150.465" y="87.2588" type="line"/>
      <point x="237.289" y="237.642" type="line"/>
      <point x="237.289" y="563.588" type="line"/>
      <point x="150.465" y="713.971" type="line"/>
      <point x="0.0820312" y="800.795" type="line"/>
    </contour>
    <contour>
      <point x="0.0820312" y="0.43457" type="move"/>
    </contour>
  </outline>
</glyph>
<glyph name="comma" format="1">
  <advance width="1000"/>
  <unicode hex="002C"/>
  <outline>
    <contour>
      <point x="0" y="-201" type="move"/>
      <point x="86.8242" y="-50.6172" type="line"/>
    </contour>
  </outline>
</glyph>
<glyph name="hyphen" format="1">
  <advance width="1000"/>
  <unicode hex="002D"/>
  <outline>
    <contour>
      <point x="0" y="402.444" type="move"/>
      <point x="320.055" y="402.444" type="line"/>
    </contour>
  </outline>
</glyph>
<glyph name="one" format="1">
  <advance width="1000"/>
  <unicode hex="0031"/>
  <outline>
    <contour>
      <point x="177.725" y="-48.0557" type="line"/>
      <point x="264.564" y="38.7852" type="line"/>
      <point x="264.565" y="814.506" type="line"/>
      <point x="228.961" y="850.11" type="line"/>
      <point x="45.6855" y="696.324" type="line"/>
      <point x="-48.4287" y="602.211" type="line"/>
      <point x="-24.7773" y="578.561" type="line"/>
      <point x="101.931" y="684.881" type="line"/>
      <point x="130.121" y="695.142" type="line"/>
      <point x="143.802" y="657.554" type="line"/>
      <point x="143.802" y="-14.1338" type="line"/>
    </contour>
    <contour>
      <point x="172.18" y="-104.869" type="line"/>
      <point x="115.611" y="-48.3008" type="line"/>
      <point x="101.931" y="-10.7139" type="line"/>
      <point x="101.931" y="622.419" type="line"/>
      <point x="-3.81348" y="533.689" type="line"/>
      <point x="-32.0039" y="523.429" type="line"/>
      <point x="-88.5723" y="579.997" type="line"/>
      <point x="-102.253" y="617.585" type="line"/>
      <point x="3.81348" y="723.651" type="line"/>
      <point x="207.997" y="894.981" type="line"/>
      <point x="236.188" y="905.242" type="line"/>
      <point x="292.756" y="848.673" type="line"/>
      <point x="306.438" y="811.085" type="line"/>
      <point x="306.437" y="11.458" type="line"/>
      <point x="200.37" y="-94.6084" type="line"/>
    </contour>
  </outline>
</glyph>
<glyph name="two" format="1">
  <advance width="1000"/>
  <unicode hex="0032"/>
  <outline>
    <contour>
      <point x="407.374" y="-197.493" type="move"/>
      <point x="570.5" y="-198" type="line"/>
    </contour>
    <contour>
      <point x="233.725" y="-197.493" type="move"/>
      <point x="407.374" y="-197.493" type="line"/>
      <point x="233.725" y="-197.493" type="line"/>
      <point x="102.5" y="-198" type="line"/>
      <point x="557.757" y="711.043" type="line"/>
      <point x="407.374" y="797.867" type="line"/>
      <point x="233.725" y="797.867" type="line"/>
      <point x="83.3418" y="711.043" type="line"/>
      <point x="-3.48242" y="560.66" type="line"/>
    </contour>
  </outline>
</glyph>
<glyph name="three" format="1">
  <advance width="1000"/>
  <unicode hex="0033"/>
  <outline>
    <contour>
      <point x="644.581" y="177" type="move" smooth="yes"/>
      <point x="645.5" y="177"/>
      <point x="492.5" y="333"/>
      <point x="492.5" y="333" type="curve"/>
      <point x="360.5" y="333" type="line"/>
      <point x="492.5" y="333" type="line"/>
      <point x="606.5" y="405" type="line"/>
      <point x="644.581" y="560.66" type="line"/>
      <point x="557.757" y="711.043" type="line"/>
      <point x="407.374" y="797.867" type="line"/>
      <point x="233.725" y="797.867" type="line"/>
      <point x="83.3418" y="711.043" type="line"/>
    </contour>
    <contour>
      <point x="407.374" y="-197.493" type="move"/>
      <point x="557.757" y="-110.669" type="line"/>
      <point x="644.581" y="39.7139" type="line"/>
      <point x="644.581" y="177" type="line"/>
    </contour>
    <contour>
      <point x="83.3418" y="-110.669" type="move"/>
      <point x="233.725" y="-197.493" type="line"/>
      <point x="407.374" y="-197.493" type="line"/>
      <point x="233.725" y="-197.493" type="line"/>
    </contour>
  </outline>
</glyph>
<glyph name="four" format="1">
  <advance width="1000"/>
  <unicode hex="0034"/>
  <outline>
    <contour>
      <point x="404.265" y="438.052" type="line"/>
      <point x="432.455" y="448.312" type="line"/>
      <point x="604.203" y="448.312" type="line"/>
      <point x="660.771" y="391.743" type="line"/>
      <point x="674.452" y="354.155" type="line"/>
      <point x="568.387" y="248.089" type="line"/>
      <point x="540.195" y="237.828" type="line"/>
      <point x="445.986" y="237.828" type="line"/>
      <point x="445.986" y="11.4561" type="line"/>
      <point x="417.796" y="1.19629" type="line"/>
      <point x="404.115" y="38.7832" type="line"/>
      <point x="404.114" y="275.416" type="line"/>
      <point x="432.306" y="285.677" type="line"/>
      <point x="536.775" y="285.677" type="line"/>
      <point x="620.627" y="369.529" type="line"/>
      <point x="589.692" y="400.464" type="line"/>
      <point x="417.945" y="400.464" type="line"/>
    </contour>
    <contour>
      <point x="567.721" y="248.09" type="line"/>
      <point x="539.53" y="237.829" type="line"/>
      <point x="445.986" y="237.828" type="line"/>
      <point x="445.986" y="11.4561" type="line"/>
      <point x="339.921" y="-94.6084" type="line"/>
      <point x="311.73" y="-104.869" type="line"/>
      <point x="255.162" y="-48.3008" type="line"/>
      <point x="241.481" y="-10.7139" type="line"/>
      <point x="241.48" y="237.829" type="line"/>
      <point x="-30.9668" y="237.828" type="line"/>
      <point x="-31.3438" y="238.205"/>
      <point x="-31.1963" y="238.583"/>
      <point x="-31.9775" y="238.583" type="curve"/>
      <point x="-88.5723" y="295.177" type="line"/>
      <point x="-102.253" y="332.765" type="line"/>
      <point x="241.481" y="788.915" type="line"/>
      <point x="347.548" y="894.981" type="line"/>
      <point x="375.738" y="905.242" type="line"/>
      <point x="432.307" y="848.673" type="line"/>
      <point x="445.988" y="811.085" type="line"/>
      <point x="445.987" y="448.312" type="line"/>
      <point x="604.203" y="448.312" type="line"/>
      <point x="617.884" y="410.725" type="line"/>
      <point x="589.692" y="400.464" type="line"/>
      <point x="417.797" y="400.464" type="line"/>
      <point x="404.116" y="438.052" type="line"/>
      <point x="404.116" y="814.506" type="line"/>
      <point x="370.193" y="848.429" type="line"/>
      <point x="283.354" y="761.588" type="line"/>
      <point x="-50.1084" y="319.071" type="line"/>
      <point x="-17.4678" y="286.431" type="line"/>
      <point x="-16.6865" y="286.432"/>
      <point x="-16.834" y="286.054"/>
      <point x="-16.4561" y="285.677" type="curve"/>
      <point x="269.671" y="285.678" type="line"/>
      <point x="283.352" y="248.09" type="line"/>
      <point x="283.353" y="-14.1338" type="line"/>
      <point x="317.275" y="-48.0557" type="line"/>
      <point x="404.115" y="38.7832" type="line"/>
      <point x="404.114" y="275.416" type="line"/>
      <point x="432.306" y="285.677" type="line"/>
      <point x="554.04" y="285.677" type="line"/>
    </contour>
    <contour>
      <point x="283.353" y="410.724" type="line"/>
      <point x="255.162" y="400.463" type="line"/>
      <point x="116.102" y="400.463" type="line"/>
      <point x="102.421" y="438.051" type="line"/>
      <point x="241.481" y="622.589" type="line"/>
      <point x="269.673" y="632.85" type="line"/>
      <point x="283.354" y="595.262" type="line"/>
    </contour>
    <contour>
      <point x="241.481" y="448.312" type="line"/>
      <point x="241.481" y="539.696" type="line"/>
      <point x="172.617" y="448.312" type="line"/>
    </contour>
  </outline>
</glyph>
<glyph name="five" format="1">
  <advance width="1000"/>
  <unicode hex="0035"/>
  <outline>
    <contour>
      <point x="564.314" y="826.459" type="line"/>
      <point x="533.379" y="857.394" type="line"/>
      <point x="80.707" y="857.393" type="line"/>
      <point x="-15.0986" y="761.587" type="line"/>
      <point x="-15.0986" y="588.968" type="line"/>
      <point x="27.2451" y="546.625" type="line"/>
      <point x="48.7344" y="555.022" type="line"/>
      <point x="76.9248" y="565.283" type="line"/>
      <point x="128.42" y="575.034" type="line"/>
      <point x="180.709" y="575.034" type="line"/>
      <point x="232.203" y="565.284" type="line"/>
      <point x="281.339" y="546.079" type="line"/>
      <point x="325.628" y="518.621" type="line"/>
      <point x="343.721" y="495.466" type="line"/>
      <point x="369.865" y="446.837" type="line"/>
      <point x="383.546" y="409.249" type="line"/>
      <point x="401.431" y="356.484" type="line"/>
      <point x="410.511" y="301.189" type="line"/>
      <point x="410.51" y="245.037" type="line"/>
      <point x="401.431" y="189.739" type="line"/>
      <point x="383.547" y="136.977" type="line"/>
      <point x="362.943" y="98.6553" type="line"/>
      <point x="344.518" y="87.2305" type="line"/>
      <point x="295.382" y="68.0264" type="line"/>
      <point x="267.19" y="57.7656" type="line"/>
      <point x="215.697" y="48.0146" type="line"/>
      <point x="163.408" y="48.0146" type="line"/>
      <point x="111.913" y="57.7656" type="line"/>
      <point x="62.7773" y="76.9697" type="line"/>
      <point x="28.5625" y="98.1836" type="line"/>
      <point x="-48.4287" y="21.1934" type="line"/>
      <point x="-17.4941" y="-9.74121" type="line"/>
      <point x="27.79" y="-37.8164" type="line"/>
      <point x="76.9248" y="-57.0205" type="line"/>
      <point x="128.42" y="-66.7715" type="line"/>
      <point x="180.709" y="-66.7715" type="line"/>
      <point x="228.439" y="-57.7334" type="line"/>
      <point x="253.147" y="-48.0752" type="line"/>
      <point x="298.433" y="-20.001" type="line"/>
      <point x="338.487" y="16.0918" type="line"/>
      <point x="444.555" y="122.157" type="line"/>
      <point x="478.165" y="165.173" type="line"/>
      <point x="504.309" y="213.801" type="line"/>
      <point x="522.194" y="266.563" type="line"/>
      <point x="531.273" y="321.86" type="line"/>
      <point x="531.274" y="378.013" type="line"/>
      <point x="522.194" y="433.31" type="line"/>
      <point x="515.445" y="453.219" type="line"/>
      <point x="491.846" y="497.115" type="line"/>
      <point x="458.235" y="540.129" type="line"/>
      <point x="401.667" y="596.696" type="line"/>
      <point x="361.61" y="632.789" type="line"/>
      <point x="316.326" y="660.865" type="line"/>
      <point x="267.19" y="680.069" type="line"/>
      <point x="215.697" y="689.821" type="line"/>
      <point x="163.408" y="689.821" type="line"/>
      <point x="119.347" y="681.477" type="line"/>
      <point x="105.665" y="719.064" type="line"/>
      <point x="105.665" y="732.346" type="line"/>
      <point x="133.855" y="742.606" type="line"/>
      <point x="480.461" y="742.606" type="line"/>
    </contour>
    <contour>
      <point x="618.14" y="811.086" type="line"/>
      <point x="512.072" y="705.019" type="line"/>
      <point x="483.882" y="694.758" type="line"/>
      <point x="353.345" y="694.758" type="line"/>
      <point x="376.12" y="680.638" type="line"/>
      <point x="416.177" y="644.545" type="line"/>
      <point x="472.745" y="587.978" type="line"/>
      <point x="506.355" y="544.963" type="line"/>
      <point x="532.5" y="496.334" type="line"/>
      <point x="546.181" y="458.747" type="line"/>
      <point x="564.065" y="405.982" type="line"/>
      <point x="573.146" y="350.686" type="line"/>
      <point x="573.145" y="294.533" type="line"/>
      <point x="564.065" y="239.236" type="line"/>
      <point x="546.181" y="186.474" type="line"/>
      <point x="520.036" y="137.846" type="line"/>
      <point x="486.427" y="94.8301" type="line"/>
      <point x="380.359" y="-11.2354" type="line"/>
      <point x="340.304" y="-47.3281" type="line"/>
      <point x="295.02" y="-75.4023" type="line"/>
      <point x="245.884" y="-94.6084" type="line"/>
      <point x="217.693" y="-104.869" type="line"/>
      <point x="166.199" y="-114.62" type="line"/>
      <point x="113.91" y="-114.62" type="line"/>
      <point x="62.415" y="-104.869" type="line"/>
      <point x="13.2793" y="-85.665" type="line"/>
      <point x="-32.0039" y="-57.5898" type="line"/>
      <point x="-88.5723" y="-1.02051" type="line"/>
      <point x="-102.254" y="36.5674" type="line"/>
      <point x="3.81348" y="142.634" type="line"/>
      <point x="32.0039" y="152.895" type="line"/>
      <point x="77.2871" y="124.818" type="line"/>
      <point x="126.423" y="105.613" type="line"/>
      <point x="177.918" y="95.8633" type="line"/>
      <point x="230.207" y="95.8633" type="line"/>
      <point x="277.94" y="104.901" type="line"/>
      <point x="302.646" y="114.558" type="line"/>
      <point x="321.071" y="125.982" type="line"/>
      <point x="341.675" y="164.304" type="line"/>
      <point x="359.56" y="217.066" type="line"/>
      <point x="368.638" y="272.364" type="line"/>
      <point x="368.639" y="328.517" type="line"/>
      <point x="359.56" y="383.812" type="line"/>
      <point x="352.811" y="403.721" type="line"/>
      <point x="329.211" y="447.617" type="line"/>
      <point x="311.118" y="470.772" type="line"/>
      <point x="266.829" y="498.231" type="line"/>
      <point x="217.693" y="517.436" type="line"/>
      <point x="166.199" y="527.187" type="line"/>
      <point x="113.91" y="527.187" type="line"/>
      <point x="66.1719" y="518.146" type="line"/>
      <point x="41.4697" y="508.492" type="line"/>
      <point x="13.2793" y="498.232" type="line"/>
      <point x="-43.2891" y="554.8" type="line"/>
      <point x="-56.9697" y="592.388" type="line"/>
      <point x="-56.9697" y="788.914" type="line"/>
      <point x="49.0957" y="894.98" type="line"/>
      <point x="77.2861" y="905.241" type="line"/>
      <point x="547.889" y="905.242" type="line"/>
      <point x="604.458" y="848.674" type="line"/>
    </contour>
  </outline>
</glyph>
<glyph name="six" format="1">
  <advance width="1000"/>
  <unicode hex="0036"/>
  <outline>
    <contour>
      <point x="644.581" y="560.66" type="move"/>
      <point x="557.757" y="711.043" type="line"/>
      <point x="407.374" y="797.867" type="line"/>
      <point x="233.725" y="797.867" type="line"/>
      <point x="83.3418" y="711.043" type="line"/>
      <point x="-3.48242" y="560.66" type="line"/>
      <point x="-3.48242" y="39.7139" type="line"/>
    </contour>
    <contour>
      <point x="407.374" y="-197.493" type="move"/>
      <point x="557.757" y="-110.669" type="line"/>
      <point x="644.581" y="39.7139" type="line"/>
      <point x="642.739" y="44.6172" type="line"/>
      <point x="555.915" y="195" type="line"/>
      <point x="405.532" y="281.824" type="line"/>
      <point x="231.883" y="281.824" type="line"/>
      <point x="81.5" y="195" type="line"/>
      <point x="-5.32422" y="44.6172" type="line"/>
      <point x="-3.48242" y="39.7139" type="line"/>
      <point x="83.3418" y="-110.669" type="line"/>
      <point x="233.725" y="-197.493" type="line"/>
      <point x="407.374" y="-197.493" type="line"/>
      <point x="233.725" y="-197.493" type="line"/>
    </contour>
  </outline>
</glyph>
<glyph name="seven" format="1">
  <advance width="1000"/>
  <unicode hex="0037"/>
  <outline>
    <contour>
      <point x="107.974" y="-48.0566" type="line"/>
      <point x="194.814" y="38.7842" type="line"/>
      <point x="479.475" y="820.885" type="line"/>
      <point x="442.967" y="857.393" type="line"/>
      <point x="35.4238" y="857.394" type="line"/>
      <point x="-48.4277" y="773.541" type="line"/>
      <point x="-17.4941" y="742.607" type="line"/>
      <point x="330.821" y="742.606" type="line"/>
      <point x="344.502" y="705.019" type="line"/>
      <point x="80.4297" y="-20.5127" type="line"/>
    </contour>
    <contour>
      <point x="102.429" y="-104.87" type="line"/>
      <point x="45.8594" y="-48.3008" type="line"/>
      <point x="32.1787" y="-10.7129" type="line"/>
      <point x="288.949" y="694.759" type="line"/>
      <point x="-32.0039" y="694.759" type="line"/>
      <point x="-88.5723" y="751.327" type="line"/>
      <point x="-102.253" y="788.915" type="line"/>
      <point x="3.8125" y="894.981" type="line"/>
      <point x="32.0039" y="905.242" type="line"/>
      <point x="457.477" y="905.241" type="line"/>
      <point x="514.045" y="848.674" type="line"/>
      <point x="527.726" y="811.086" type="line"/>
      <point x="236.687" y="11.458" type="line"/>
      <point x="130.619" y="-94.6094" type="line"/>
    </contour>
    <contour>
      <point x="150.126" y="433.163" type="line"/>
      <point x="181.06" y="402.229" type="line"/>
      <point x="361.685" y="402.229" type="line"/>
      <point x="445.537" y="486.081" type="line"/>
      <point x="414.602" y="517.016" type="line"/>
      <point x="233.978" y="517.015" type="line"/>
    </contour>
    <contour>
      <point x="96.3008" y="448.536" type="line"/>
      <point x="202.366" y="554.603" type="line"/>
      <point x="230.558" y="564.863" type="line"/>
      <point x="429.111" y="564.864" type="line"/>
      <point x="485.682" y="508.295" type="line"/>
      <point x="499.362" y="470.708" type="line"/>
      <point x="393.295" y="364.641" type="line"/>
      <point x="365.104" y="354.38" type="line"/>
      <point x="166.55" y="354.381" type="line"/>
      <point x="109.981" y="410.948" type="line"/>
    </contour>
  </outline>
</glyph>
<glyph name="eight" format="1">
  <advance width="1000"/>
  <unicode hex="0038"/>
  <outline>
    <contour>
      <point x="549" y="306" type="move" smooth="yes"/>
      <point x="546" y="306"/>
      <point x="84" y="312"/>
      <point x="84" y="306" type="curve" smooth="yes"/>
    </contour>
    <contour>
      <point x="407.374" y="-197.493" type="move"/>
      <point x="557.757" y="-110.669" type="line"/>
      <point x="644.581" y="39.7139" type="line"/>
      <point x="618" y="219" type="line"/>
      <point x="549" y="306" type="line"/>
      <point x="618" y="396" type="line"/>
      <point x="644.581" y="560.66" type="line"/>
      <point x="557.757" y="711.043" type="line"/>
      <point x="407.374" y="797.867" type="line"/>
      <point x="233.725" y="797.867" type="line"/>
      <point x="83.3418" y="711.043" type="line"/>
      <point x="-3.48242" y="560.66" type="line"/>
      <point x="21" y="399" type="line"/>
      <point x="84" y="306" type="line"/>
      <point x="21" y="219" type="line"/>
      <point x="-3.48242" y="39.7139" type="line"/>
      <point x="83.3418" y="-110.669" type="line"/>
      <point x="233.725" y="-197.493" type="line"/>
      <point x="407.374" y="-197.493" type="line"/>
      <point x="233.725" y="-197.493" type="line"/>
    </contour>
  </outline>
</glyph>
<glyph name="nine" format="1">
  <advance width="1000"/>
  <unicode hex="0039"/>
  <outline>
    <contour>
      <point x="644.581" y="39.7139" type="move"/>
      <point x="647.824" y="444.383" type="line"/>
    </contour>
    <contour>
      <point x="407.374" y="-197.493" type="move"/>
      <point x="557.757" y="-110.669" type="line"/>
      <point x="644.581" y="39.7139" type="line"/>
    </contour>
    <contour>
      <point x="233.725" y="-197.493" type="move"/>
      <point x="407.374" y="-197.493" type="line"/>
      <point x="233.725" y="-197.493" type="line"/>
    </contour>
    <contour>
      <point x="410.617" y="207.176" type="move"/>
      <point x="561" y="294" type="line"/>
      <point x="647.824" y="444.383" type="line"/>
      <point x="644.581" y="560.66" type="line"/>
      <point x="557.757" y="711.043" type="line"/>
      <point x="407.374" y="797.867" type="line"/>
      <point x="233.725" y="797.867" type="line"/>
      <point x="83.3418" y="711.043" type="line"/>
      <point x="-3.48242" y="560.66" type="line"/>
      <point x="-0.239258" y="444.383" type="line"/>
      <point x="86.585" y="294" type="line"/>
      <point x="236.968" y="207.176" type="line"/>
      <point x="410.617" y="207.176" type="line"/>
      <point x="236.968" y="207.176" type="line"/>
    </contour>
  </outline>
</glyph>
<glyph name="colon" format="1">
  <advance width="1000"/>
  <unicode hex="003A"/>
  <outline>
    <contour>
      <point x="0.5" y="268" type="move"/>
    </contour>
    <contour>
      <point x="1.5" y="511" type="move"/>
    </contour>
  </outline>
</glyph>
<glyph name="semicolon" format="1">
  <advance width="1000"/>
  <unicode hex="003B"/>
  <outline>
    <contour>
      <point x="0.00195312" y="-199.995" type="move"/>
      <point x="86.8262" y="-49.6123" type="line"/>
    </contour>
    <contour>
      <point x="99.6611" y="0" type="move"/>
    </contour>
  </outline>
</glyph>
<glyph name="question" format="1">
  <advance width="1000"/>
  <unicode hex="003F"/>
  <outline>
    <contour>
      <point x="331.5" y="-195" type="move"/>
    </contour>
    <contour>
      <point x="333.5" y="-27" type="move"/>
      <point x="333.5" y="180" type="line"/>
      <point x="407.374" y="178.507" type="line"/>
      <point x="557.757" y="265.331" type="line"/>
      <point x="644.581" y="415.714" type="line"/>
      <point x="644.581" y="560.66" type="line"/>
      <point x="557.757" y="711.043" type="line"/>
      <point x="407.374" y="797.867" type="line"/>
      <point x="233.725" y="797.867" type="line"/>
      <point x="83.3418" y="711.043" type="line"/>
      <point x="-3.48242" y="560.66" type="line"/>
    </contour>
  </outline>
</glyph>
<glyph name="A" format="1">
  <advance width="1000"/>
  <unicode hex="0041"/>
  <outline>
    <contour>
      <point x="0" y="1.26172" type="move"/>
      <point x="290.717" y="800" type="line"/>
      <point x="581.435" y="1.26172" type="line"/>
      <point x="468.567" y="311.359" type="line"/>
      <point x="68.5674" y="311.359" type="line"/>
    </contour>
  </outline>
</glyph>
<glyph name="B" format="1">
  <advance width="1000"/>
  <unicode hex="0042"/>
  <outline>
    <contour>
      <point x="193.346" y="73.2852" type="line"/>
      <point x="216.571" y="96.5107" type="line"/>
      <point x="216.571" y="233.634" type="line"/>
      <point x="193.346" y="256.859" type="line"/>
    </contour>
    <contour>
      <point x="167.212" y="-14.6777" type="line"/>
      <point x="87.2812" y="-94.6094" type="line"/>
      <point x="59.0898" y="-104.869" type="line"/>
      <point x="2.52148" y="-48.3008" type="line"/>
      <point x="-11.1592" y="-10.7129" type="line"/>
      <point x="-11.1602" y="678.669" type="line"/>
      <point x="-19.8701" y="685.601"/>
      <point x="-27.5859" y="690.342"/>
      <point x="-32.0039" y="694.759" type="curve" smooth="yes"/>
      <point x="-88.5723" y="751.327" type="line"/>
      <point x="-102.253" y="788.915" type="line"/>
      <point x="3.8125" y="894.981" type="line"/>
      <point x="32.0039" y="905.242" type="line"/>
      <point x="392.215" y="545.029" type="line"/>
      <point x="405.896" y="507.441" type="line"/>
      <point x="311.535" y="413.081" type="line"/>
      <point x="323.081" y="401.535"/>
      <point x="334.659" y="390.036"/>
      <point x="336.871" y="387.824" type="curve" smooth="yes"/>
      <point x="407.396" y="317.299" type="line"/>
      <point x="421.077" y="279.711" type="line"/>
      <point x="421.077" y="118.681" type="line"/>
      <point x="246.691" y="-55.7061" type="line"/>
      <point x="218.501" y="-65.9668" type="line"/>
    </contour>
    <contour>
      <point x="64.6348" y="-48.0557" type="line"/>
      <point x="151.475" y="38.7842" type="line"/>
      <point x="151.475" y="322.637" type="line"/>
      <point x="179.665" y="332.897" type="line"/>
      <point x="244.762" y="267.802" type="line"/>
      <point x="258.443" y="230.214" type="line"/>
      <point x="258.442" y="69.1836" type="line"/>
      <point x="202.076" y="12.8164" type="line"/>
      <point x="224.046" y="-9.15332" type="line"/>
      <point x="379.206" y="146.008" type="line"/>
      <point x="379.205" y="283.131" type="line"/>
      <point x="322.361" y="339.976" type="line" smooth="yes"/>
      <point x="317.777" y="344.56"/>
      <point x="272.872" y="389.128"/>
      <point x="271.662" y="391.054" type="curve" smooth="yes"/>
      <point x="257.981" y="428.642" type="line" smooth="yes"/>
      <point x="257.284" y="429.752"/>
      <point x="257.222" y="427.968"/>
      <point x="257.959" y="428.703" type="curve" smooth="yes"/>
      <point x="352.071" y="522.815" type="line"/>
      <point x="26.459" y="848.429" type="line"/>
      <point x="-48.4277" y="773.541" type="line"/>
      <point x="-17.4941" y="742.607" type="line" smooth="yes"/>
      <point x="-10.0195" y="735.133"/>
      <point x="12.1914" y="723.084"/>
      <point x="16.3545" y="711.662" type="curve" smooth="yes"/>
      <point x="30.0352" y="674.074" type="line" smooth="yes"/>
      <point x="30.4727" y="672.872"/>
      <point x="30.7109" y="671.677"/>
      <point x="30.7109" y="670.494" type="curve" smooth="yes"/>
      <point x="30.7119" y="-14.1328" type="line"/>
    </contour>
    <contour>
      <point x="193.346" y="408.032" type="line"/>
      <point x="165.155" y="397.771" type="line"/>
      <point x="151.475" y="435.359" type="line"/>
      <point x="151.474" y="535.188" type="line"/>
      <point x="179.665" y="545.447" type="line"/>
      <point x="229.58" y="495.533" type="line"/>
      <point x="243.261" y="457.945" type="line"/>
    </contour>
  </outline>
</glyph>
<glyph name="C" format="1">
  <advance width="1000"/>
  <unicode hex="0043"/>
  <outline>
    <contour>
      <point x="630.027" y="571.996" type="move"/>
      <point x="630.027" y="569.996" type="line"/>
      <point x="327.027" y="803.996" type="line"/>
      <point x="0" y="578.996" type="line"/>
      <point x="0" y="578.996" type="line"/>
      <point x="0" y="215.996" type="line"/>
      <point x="2" y="215.996" type="line"/>
      <point x="327.027" y="0" type="line"/>
      <point x="327.027" y="0" type="line"/>
      <point x="624.027" y="217.996" type="line"/>
    </contour>
  </outline>
</glyph>
<glyph name="D" format="1">
  <advance width="1000"/>
  <unicode hex="0044"/>
  <outline>
    <contour>
      <point x="199.082" y="0.43457" type="move"/>
      <point x="349.465" y="87.2588" type="line"/>
      <point x="436.289" y="237.642" type="line"/>
      <point x="436.289" y="563.588" type="line"/>
      <point x="349.465" y="713.971" type="line"/>
      <point x="199.082" y="800.795" type="line"/>
      <point x="25.4326" y="800.795" type="line"/>
      <point x="20" y="801.971" type="line"/>
      <point x="20.0498" y="1.25879" type="line"/>
      <point x="25.4326" y="0.43457" type="line"/>
      <point x="199.082" y="0.43457" type="line"/>
      <point x="25.4326" y="0.43457" type="line"/>
    </contour>
  </outline>
</glyph>
<glyph name="E" format="1">
  <advance width="1000"/>
  <unicode hex="0045"/>
  <outline>
    <contour>
      <point x="-48.4277" y="-26.0869" type="line"/>
      <point x="-17.4941" y="-57.0215" type="line"/>
      <point x="364.39" y="-57.0215" type="line"/>
      <point x="448.241" y="26.8311" type="line"/>
      <point x="417.307" y="57.7656" type="line"/>
      <point x="35.4238" y="57.7646" type="line"/>
    </contour>
    <contour>
      <point x="-102.253" y="-10.7139" type="line"/>
      <point x="3.8125" y="95.3525" type="line"/>
      <point x="32.0039" y="105.613" type="line"/>
      <point x="431.816" y="105.614" type="line"/>
      <point x="488.385" y="49.0449" type="line"/>
      <point x="502.065" y="11.457" type="line"/>
      <point x="396.001" y="-94.6094" type="line"/>
      <point x="367.81" y="-104.87" type="line"/>
      <point x="-32.0039" y="-104.869" type="line"/>
      <point x="-88.5723" y="-48.3018" type="line"/>
    </contour>
    <contour>
      <point x="-26.459" y="-48.0557" type="line"/>
      <point x="60.3818" y="38.7832" type="line"/>
      <point x="60.3809" y="332.532" type="line"/>
      <point x="88.5723" y="342.793" type="line"/>
      <point x="264.437" y="342.794" type="line"/>
      <point x="348.288" y="426.646" type="line"/>
      <point x="317.354" y="457.579" type="line"/>
      <point x="35.4229" y="457.58" type="line"/>
      <point x="-60.3818" y="361.775" type="line"/>
      <point x="-60.3818" y="-14.1338" type="line"/>
    </contour>
    <contour>
      <point x="-32.0039" y="-104.869" type="line"/>
      <point x="-88.5723" y="-48.3018" type="line"/>
      <point x="-102.253" y="-10.7139" type="line"/>
      <point x="-102.253" y="389.103" type="line"/>
      <point x="3.8125" y="495.167" type="line"/>
      <point x="32.0029" y="505.428" type="line"/>
      <point x="331.863" y="505.428" type="line"/>
      <point x="388.433" y="448.86" type="line"/>
      <point x="402.113" y="411.272" type="line"/>
      <point x="296.047" y="305.206" type="line"/>
      <point x="267.856" y="294.945" type="line"/>
      <point x="102.253" y="294.945" type="line"/>
      <point x="102.253" y="11.4561" type="line"/>
      <point x="-3.81348" y="-94.6084" type="line"/>
    </contour>
    <contour>
      <point x="-26.459" y="351.759" type="line"/>
      <point x="60.3818" y="438.599" type="line"/>
      <point x="60.3809" y="732.346" type="line"/>
      <point x="88.5723" y="742.606" type="line"/>
      <point x="364.389" y="742.606" type="line"/>
      <point x="448.241" y="826.458" type="line"/>
      <point x="417.307" y="857.393" type="line"/>
      <point x="35.4238" y="857.394" type="line"/>
      <point x="-60.3818" y="761.588" type="line"/>
      <point x="-60.3818" y="385.682" type="line"/>
    </contour>
    <contour>
      <point x="-32.0049" y="294.945" type="line"/>
      <point x="-88.5723" y="351.515" type="line"/>
      <point x="-102.253" y="389.103" type="line"/>
      <point x="-102.253" y="788.915" type="line"/>
      <point x="3.8125" y="894.981" type="line"/>
      <point x="32.0039" y="905.242" type="line"/>
      <point x="431.816" y="905.241" type="line"/>
      <point x="488.385" y="848.672" type="line"/>
      <point x="502.065" y="811.084" type="line"/>
      <point x="395.999" y="705.019" type="line"/>
      <point x="367.809" y="694.758" type="line"/>
      <point x="102.253" y="694.759" type="line"/>
      <point x="102.254" y="411.271" type="line"/>
      <point x="-3.81348" y="305.206" type="line"/>
    </contour>
  </outline>
</glyph>
<glyph name="F" format="1">
  <advance width="1000"/>
  <unicode hex="0046"/>
  <outline>
    <contour>
      <point x="60.4648" y="495.091" type="line"/>
      <point x="88.6553" y="505.352" type="line"/>
      <point x="331.921" y="505.352" type="line"/>
      <point x="345.602" y="467.764" type="line"/>
      <point x="317.411" y="457.503" type="line"/>
      <point x="74.1455" y="457.504" type="line"/>
    </contour>
    <contour>
      <point x="74.0625" y="457.504" type="line"/>
      <point x="60.3818" y="495.092" type="line"/>
      <point x="60.3809" y="732.346" type="line"/>
      <point x="88.5723" y="742.606" type="line"/>
      <point x="364.466" y="742.607" type="line"/>
      <point x="448.318" y="826.458" type="line"/>
      <point x="417.384" y="857.393" type="line"/>
      <point x="35.4238" y="857.394" type="line"/>
      <point x="-60.3818" y="761.588" type="line"/>
      <point x="-60.3809" y="-14.2842" type="line"/>
      <point x="-26.459" y="-48.207" type="line"/>
      <point x="60.3818" y="38.6328" type="line"/>
      <point x="60.3818" y="332.457" type="line"/>
      <point x="88.5723" y="342.717" type="line"/>
      <point x="264.492" y="342.717" type="line"/>
      <point x="348.345" y="426.569" type="line"/>
      <point x="317.411" y="457.503" type="line"/>
    </contour>
    <contour>
      <point x="102.253" y="505.352" type="line"/>
      <point x="331.921" y="505.352" type="line"/>
      <point x="388.489" y="448.784" type="line"/>
      <point x="402.17" y="411.196" type="line"/>
      <point x="296.104" y="305.129" type="line"/>
      <point x="267.912" y="294.869" type="line"/>
      <point x="102.254" y="294.869" type="line"/>
      <point x="102.253" y="11.3057" type="line"/>
      <point x="-3.81348" y="-94.7598" type="line"/>
      <point x="-32.0039" y="-105.021" type="line"/>
      <point x="-88.5723" y="-48.4512" type="line"/>
      <point x="-102.253" y="-10.8633" type="line"/>
      <point x="-102.253" y="788.915" type="line"/>
      <point x="3.8125" y="894.981" type="line"/>
      <point x="32.0039" y="905.242" type="line"/>
      <point x="431.894" y="905.241" type="line"/>
      <point x="488.463" y="848.672" type="line"/>
      <point x="502.144" y="811.085" type="line"/>
      <point x="396.077" y="705.02" type="line"/>
      <point x="367.886" y="694.759" type="line"/>
      <point x="102.253" y="694.759" type="line"/>
    </contour>
  </outline>
</glyph>
<glyph name="G" format="1">
  <advance width="1000"/>
  <unicode hex="0047"/>
  <outline>
    <contour>
      <point x="644.581" y="238.714" type="move" smooth="yes"/>
      <point x="639.5" y="235"/>
      <point x="644.581" y="319.208"/>
      <point x="644.581" y="402" type="curve"/>
      <point x="387.5" y="402" type="line"/>
    </contour>
    <contour>
      <point x="407.374" y="1.50684" type="move"/>
      <point x="557.757" y="88.3311" type="line"/>
      <point x="644.581" y="238.714" type="line"/>
    </contour>
    <contour>
      <point x="557.757" y="716.043" type="move"/>
      <point x="407.374" y="802.867" type="line"/>
      <point x="233.725" y="802.867" type="line"/>
      <point x="83.3418" y="716.043" type="line"/>
      <point x="-3.48242" y="565.66" type="line"/>
      <point x="-3.48242" y="238.714" type="line"/>
      <point x="83.3418" y="88.3311" type="line"/>
      <point x="233.725" y="1.50684" type="line"/>
      <point x="407.374" y="1.50684" type="line"/>
      <point x="233.725" y="1.50684" type="line"/>
    </contour>
  </outline>
</glyph>
<glyph name="H" format="1">
  <advance width="1000"/>
  <unicode hex="0048"/>
  <outline>
    <contour>
      <point x="480" y="404.187" type="move" smooth="yes"/>
      <point x="480" y="401"/>
      <point x="-37.25" y="405.187"/>
      <point x="-40.25" y="402.187" type="curve" smooth="yes"/>
    </contour>
    <contour>
      <point x="0" y="0.37207" type="move"/>
      <point x="0" y="800" type="line"/>
      <point x="0" y="404.187" type="line"/>
      <point x="480" y="404.187" type="line"/>
      <point x="480" y="800" type="line"/>
      <point x="480" y="0.37207" type="line"/>
    </contour>
  </outline>
</glyph>
<glyph name="I" format="1">
  <advance width="1000"/>
  <unicode hex="0049"/>
  <outline>
    <contour>
      <point x="-26.459" y="-48.0557" type="line"/>
      <point x="60.3818" y="38.7832" type="line"/>
      <point x="60.3818" y="814.505" type="line"/>
      <point x="26.459" y="848.429" type="line"/>
      <point x="-60.3818" y="761.588" type="line"/>
      <point x="-60.3818" y="-14.1338" type="line"/>
    </contour>
    <contour>
      <point x="-32.0039" y="-104.869" type="line"/>
      <point x="-88.5723" y="-48.3018" type="line"/>
      <point x="-102.253" y="-10.7139" type="line"/>
      <point x="-102.253" y="788.915" type="line"/>
      <point x="3.8125" y="894.981" type="line"/>
      <point x="32.0039" y="905.242" type="line"/>
      <point x="88.5723" y="848.673" type="line"/>
      <point x="102.253" y="811.085" type="line"/>
      <point x="102.253" y="11.4561" type="line"/>
      <point x="-3.81348" y="-94.6084" type="line"/>
    </contour>
  </outline>
</glyph>
<glyph name="J" format="1">
  <advance width="1000"/>
  <unicode hex="004A"/>
  <outline>
    <contour>
      <point x="357.697" y="792" type="move"/>
      <point x="642.696" y="792" type="line"/>
      <point x="644.581" y="39.7139" type="line"/>
    </contour>
    <contour>
      <point x="407.374" y="-197.493" type="move"/>
      <point x="557.757" y="-110.669" type="line"/>
      <point x="644.581" y="39.7139" type="line"/>
    </contour>
    <contour>
      <point x="-3.48242" y="39.7139" type="move"/>
      <point x="83.3418" y="-110.669" type="line"/>
      <point x="233.725" y="-197.493" type="line"/>
      <point x="407.374" y="-197.493" type="line"/>
      <point x="233.725" y="-197.493" type="line"/>
    </contour>
  </outline>
</glyph>
<glyph name="K" format="1">
  <advance width="1000"/>
  <unicode hex="004B"/>
  <outline>
    <contour>
      <point x="26.458" y="829.486" type="line"/>
      <point x="-60.3818" y="742.646" type="line"/>
      <point x="-60.3818" y="-14.1338" type="line"/>
      <point x="-26.459" y="-48.0557" type="line"/>
      <point x="60.3818" y="38.7832" type="line"/>
      <point x="60.3809" y="795.563" type="line"/>
    </contour>
    <contour>
      <point x="32.0029" y="886.3" type="line"/>
      <point x="88.5713" y="829.73" type="line"/>
      <point x="102.252" y="792.143" type="line"/>
      <point x="102.253" y="11.4561" type="line"/>
      <point x="-3.81348" y="-94.6084" type="line"/>
      <point x="-32.0039" y="-104.869" type="line"/>
      <point x="-88.5723" y="-48.3018" type="line"/>
      <point x="-102.253" y="-10.7139" type="line"/>
      <point x="-102.253" y="769.973" type="line"/>
      <point x="3.81152" y="876.039" type="line"/>
    </contour>
    <contour>
      <point x="-26.459" y="420.355" type="line"/>
      <point x="21.625" y="468.439" type="line"/>
      <point x="49.8154" y="478.7" type="line"/>
      <point x="379.358" y="8.0625" type="line"/>
      <point x="426.962" y="-39.54" type="line"/>
      <point x="506.369" y="39.8672" type="line"/>
      <point x="151.347" y="546.891" type="line"/>
      <point x="137.665" y="584.479" type="line"/>
      <point x="379.646" y="826.459" type="line"/>
      <point x="357.676" y="848.429" type="line"/>
      <point x="-48.4277" y="442.324" type="line"/>
    </contour>
    <contour>
      <point x="-32.0039" y="363.542" type="line"/>
      <point x="-88.5723" y="420.109" type="line"/>
      <point x="-102.253" y="457.697" type="line"/>
      <point x="335.03" y="894.981" type="line"/>
      <point x="363.221" y="905.242" type="line"/>
      <point x="419.789" y="848.673" type="line"/>
      <point x="433.471" y="811.085" type="line"/>
      <point x="186.971" y="564.585" type="line"/>
      <point x="541.993" y="57.5615" type="line"/>
      <point x="555.674" y="19.9736" type="line"/>
      <point x="449.608" y="-86.0928" type="line"/>
      <point x="421.417" y="-96.3535" type="line"/>
      <point x="364.849" y="-39.7852" type="line"/>
      <point x="42.6895" y="420.306" type="line"/>
      <point x="-3.81348" y="373.803" type="line"/>
    </contour>
  </outline>
</glyph>
<glyph name="L" format="1">
  <advance width="1000"/>
  <unicode hex="004C"/>
  <outline>
    <contour>
      <point x="26.459" y="848.429" type="line"/>
      <point x="-60.3818" y="761.588" type="line"/>
      <point x="-60.3818" y="-14.1338" type="line"/>
      <point x="-17.4941" y="-57.0215" type="line"/>
      <point x="364.39" y="-57.0215" type="line"/>
      <point x="448.241" y="26.8311" type="line"/>
      <point x="417.307" y="57.7656" type="line"/>
      <point x="74.0625" y="57.7646" type="line"/>
      <point x="60.3818" y="95.3525" type="line"/>
      <point x="60.3818" y="814.505" type="line"/>
    </contour>
    <contour>
      <point x="32.0039" y="905.242" type="line"/>
      <point x="88.5723" y="848.673" type="line"/>
      <point x="102.253" y="811.085" type="line"/>
      <point x="102.253" y="105.613" type="line"/>
      <point x="431.816" y="105.614" type="line"/>
      <point x="488.385" y="49.0449" type="line"/>
      <point x="502.065" y="11.457" type="line"/>
      <point x="396.001" y="-94.6094" type="line"/>
      <point x="367.81" y="-104.87" type="line"/>
      <point x="-32.0039" y="-104.869" type="line"/>
      <point x="-88.5723" y="-48.3018" type="line"/>
      <point x="-102.253" y="-10.7139" type="line"/>
      <point x="-102.253" y="788.915" type="line"/>
      <point x="3.8125" y="894.981" type="line"/>
    </contour>
  </outline>
</glyph>
<glyph name="M" format="1">
  <advance width="1000"/>
  <unicode hex="004D"/>
  <outline>
    <contour>
      <point x="854.103" y="3.11133" type="move"/>
      <point x="640.577" y="800" type="line"/>
      <point x="427.052" y="3.11133" type="line"/>
      <point x="213.525" y="800" type="line"/>
      <point x="0" y="3.11133" type="line"/>
    </contour>
  </outline>
</glyph>
<glyph name="N" format="1">
  <advance width="1000"/>
  <unicode hex="004E"/>
  <outline>
    <contour>
      <point x="-26.459" y="-40.0195" type="line"/>
      <point x="60.3818" y="46.8213" type="line"/>
      <point x="60.3818" y="626.28" type="line"/>
      <point x="88.5723" y="636.541" type="line"/>
      <point x="773.169" y="-48.0566" type="line"/>
      <point x="860.01" y="38.7842" type="line"/>
      <point x="860.009" y="806.469" type="line"/>
      <point x="826.087" y="840.392" type="line"/>
      <point x="739.247" y="753.552" type="line"/>
      <point x="739.246" y="174.093" type="line"/>
      <point x="711.055" y="163.832" type="line"/>
      <point x="26.459" y="848.429" type="line"/>
      <point x="-60.3818" y="761.588" type="line"/>
      <point x="-60.3818" y="-6.0957" type="line"/>
    </contour>
    <contour>
      <point x="-32.0039" y="-96.833" type="line"/>
      <point x="-88.5723" y="-40.2637" type="line"/>
      <point x="-102.254" y="-2.67578" type="line"/>
      <point x="-102.253" y="788.915" type="line"/>
      <point x="3.8125" y="894.981" type="line"/>
      <point x="32.0039" y="905.242" type="line"/>
      <point x="697.374" y="239.871" type="line"/>
      <point x="697.375" y="780.879" type="line"/>
      <point x="803.441" y="886.944" type="line"/>
      <point x="831.633" y="897.204" type="line"/>
      <point x="888.2" y="840.637" type="line"/>
      <point x="901.881" y="803.049" type="line"/>
      <point x="901.882" y="11.457" type="line"/>
      <point x="795.814" y="-94.6094" type="line"/>
      <point x="767.624" y="-104.87" type="line"/>
      <point x="102.253" y="560.502" type="line"/>
      <point x="102.253" y="19.4941" type="line"/>
      <point x="-3.81348" y="-86.5723" type="line"/>
    </contour>
  </outline>
</glyph>
<glyph name="O" format="1">
  <advance width="1000"/>
  <unicode hex="004F"/>
  <outline>
    <contour>
      <point x="411.374" y="1.50684" type="move"/>
      <point x="561.757" y="88.3311" type="line"/>
      <point x="648.581" y="238.714" type="line"/>
      <point x="648.581" y="560.66" type="line"/>
      <point x="561.757" y="711.043" type="line"/>
      <point x="411.374" y="797.867" type="line"/>
      <point x="237.725" y="797.867" type="line"/>
      <point x="87.3418" y="711.043" type="line"/>
      <point x="0.517578" y="560.66" type="line"/>
      <point x="0.517578" y="238.714" type="line"/>
      <point x="87.3418" y="88.3311" type="line"/>
      <point x="237.725" y="1.50684" type="line"/>
      <point x="411.374" y="1.50684" type="line"/>
      <point x="237.725" y="1.50684" type="line"/>
    </contour>
  </outline>
</glyph>
<glyph name="P" format="1">
  <advance width="1000"/>
  <unicode hex="0050"/>
  <outline>
    <contour>
      <point x="40" y="0" type="move"/>
      <point x="40" y="800" type="line"/>
      <point x="340" y="800" type="line"/>
      <point x="467.279" y="672.721" type="line"/>
      <point x="467.279" y="472.721" type="line"/>
      <point x="340" y="345.441" type="line"/>
      <point x="0" y="345.441" type="line"/>
      <point x="340" y="345.441" type="line"/>
    </contour>
  </outline>
</glyph>
<glyph name="Q" format="1">
  <advance width="1000"/>
  <unicode hex="0051"/>
  <outline>
    <contour>
      <point x="458.314" y="275.51" type="move"/>
      <point x="668.314" y="80.5098" type="line"/>
    </contour>
    <contour>
      <point x="407.374" y="1.50684" type="move"/>
      <point x="557.757" y="88.3311" type="line"/>
      <point x="644.581" y="238.714" type="line"/>
      <point x="644.581" y="560.66" type="line"/>
      <point x="557.757" y="711.043" type="line"/>
      <point x="407.374" y="797.867" type="line"/>
      <point x="233.725" y="797.867" type="line"/>
      <point x="83.3418" y="711.043" type="line"/>
      <point x="-3.48242" y="560.66" type="line"/>
      <point x="-3.48242" y="238.714" type="line"/>
      <point x="83.3418" y="88.3311" type="line"/>
      <point x="233.725" y="1.50684" type="line"/>
      <point x="407.374" y="1.50684" type="line"/>
      <point x="233.725" y="1.50684" type="line"/>
    </contour>
  </outline>
</glyph>
<glyph name="R" format="1">
  <advance width="1000"/>
  <unicode hex="0052"/>
  <outline>
    <contour>
      <point x="-26.459" y="-47.8564" type="line"/>
      <point x="60.3809" y="38.9844" type="line"/>
      <point x="60.3818" y="278.23" type="line"/>
      <point x="88.5723" y="288.491" type="line"/>
      <point x="264.658" y="288.492" type="line"/>
      <point x="601.513" y="-48.3633" type="line"/>
      <point x="676.399" y="26.5244" type="line"/>
      <point x="356.214" y="346.71" type="line"/>
      <point x="342.533" y="384.298" type="line"/>
      <point x="475.539" y="517.305" type="line"/>
      <point x="475.54" y="681.497" type="line"/>
      <point x="299.645" y="857.394" type="line"/>
      <point x="35.4238" y="857.394" type="line"/>
      <point x="-60.3818" y="761.588" type="line"/>
      <point x="-60.3818" y="-13.9336" type="line"/>
    </contour>
    <contour>
      <point x="-32.0039" y="-104.67" type="line"/>
      <point x="-88.5732" y="-48.1006" type="line"/>
      <point x="-102.254" y="-10.5127" type="line"/>
      <point x="-102.253" y="788.915" type="line"/>
      <point x="3.8125" y="894.981" type="line"/>
      <point x="32.0039" y="905.242" type="line"/>
      <point x="314.154" y="905.241" type="line"/>
      <point x="503.731" y="715.665" type="line"/>
      <point x="517.412" y="678.077" type="line"/>
      <point x="517.41" y="489.978" type="line"/>
      <point x="396.358" y="368.925" type="line"/>
      <point x="716.543" y="48.7383" type="line"/>
      <point x="730.225" y="11.1504" type="line"/>
      <point x="624.158" y="-94.916" type="line"/>
      <point x="595.968" y="-105.177" type="line"/>
      <point x="250.147" y="240.644" type="line"/>
      <point x="102.253" y="240.643" type="line"/>
      <point x="102.253" y="11.6572" type="line"/>
      <point x="-3.81348" y="-94.4092" type="line"/>
    </contour>
    <contour>
      <point x="74.0625" y="403.278" type="line"/>
      <point x="60.3818" y="440.865" type="line"/>
      <point x="60.3809" y="732.346" type="line"/>
      <point x="88.5723" y="742.606" type="line"/>
      <point x="264.656" y="742.607" type="line"/>
      <point x="341.096" y="666.167" type="line"/>
      <point x="354.777" y="628.579" type="line"/>
      <point x="354.776" y="440.479" type="line"/>
      <point x="327.836" y="413.539" type="line"/>
      <point x="299.646" y="403.278" type="line"/>
    </contour>
    <contour>
      <point x="102.254" y="451.126" type="line"/>
      <point x="296.226" y="451.126" type="line"/>
      <point x="312.904" y="467.806" type="line"/>
      <point x="312.905" y="632" type="line"/>
      <point x="250.146" y="694.759" type="line"/>
      <point x="102.253" y="694.759" type="line"/>
    </contour>
  </outline>
</glyph>
<glyph name="S" format="1">
  <advance width="1000"/>
  <unicode hex="0053"/>
  <outline>
    <contour>
      <point x="644.581" y="238.714" type="move" smooth="yes"/>
      <point x="643.259" y="239.971"/>
      <point x="-3.48242" y="560.66"/>
      <point x="-3.48242" y="560.66" type="curve"/>
      <point x="83.3418" y="711.043" type="line"/>
      <point x="233.725" y="797.867" type="line"/>
      <point x="407.374" y="797.867" type="line"/>
      <point x="557.757" y="711.043" type="line"/>
    </contour>
    <contour>
      <point x="-3.48242" y="238.714" type="move"/>
      <point x="83.3418" y="88.3311" type="line"/>
      <point x="233.725" y="1.50684" type="line"/>
      <point x="407.374" y="1.50684" type="line"/>
      <point x="233.725" y="1.50684" type="line"/>
    </contour>
    <contour>
      <point x="407.374" y="1.50684" type="move"/>
      <point x="557.757" y="88.3311" type="line"/>
      <point x="644.581" y="238.714" type="line"/>
    </contour>
  </outline>
</glyph>
<glyph name="T" format="1">
  <advance width="1000"/>
  <unicode hex="0054"/>
  <outline>
    <contour>
      <point x="133.468" y="-48.0557" type="line"/>
      <point x="220.308" y="38.7832" type="line"/>
      <point x="220.307" y="732.346" type="line"/>
      <point x="248.498" y="742.606" type="line"/>
      <point x="284.427" y="742.607" type="line"/>
      <point x="368.278" y="826.459" type="line"/>
      <point x="337.345" y="857.394" type="line"/>
      <point x="35.4238" y="857.394" type="line"/>
      <point x="-48.4277" y="773.541" type="line"/>
      <point x="-17.4941" y="742.607" type="line"/>
      <point x="85.8643" y="742.606" type="line"/>
      <point x="99.5459" y="705.019" type="line"/>
      <point x="99.5439" y="-14.1338" type="line"/>
    </contour>
    <contour>
      <point x="127.923" y="-104.869" type="line"/>
      <point x="71.3535" y="-48.3018" type="line"/>
      <point x="57.6729" y="-10.7139" type="line"/>
      <point x="57.6738" y="694.759" type="line"/>
      <point x="-32.0039" y="694.759" type="line"/>
      <point x="-88.5723" y="751.327" type="line"/>
      <point x="-102.253" y="788.915" type="line"/>
      <point x="3.8125" y="894.981" type="line"/>
      <point x="32.0039" y="905.242" type="line"/>
      <point x="351.854" y="905.241" type="line"/>
      <point x="408.423" y="848.674" type="line"/>
      <point x="422.104" y="811.086" type="line"/>
      <point x="316.038" y="705.02" type="line"/>
      <point x="287.848" y="694.759" type="line"/>
      <point x="262.179" y="694.759" type="line"/>
      <point x="262.179" y="11.4561" type="line"/>
      <point x="156.113" y="-94.6084" type="line"/>
    </contour>
  </outline>
</glyph>
<glyph name="U" format="1">
  <advance width="1000"/>
  <unicode hex="0055"/>
  <outline>
    <contour>
      <point x="407.374" y="1.50684" type="move"/>
      <point x="557.757" y="88.3311" type="line"/>
      <point x="651.581" y="238.714" type="line"/>
      <point x="651.5" y="801" type="line"/>
    </contour>
    <contour>
      <point x="-2" y="801" type="move"/>
      <point x="-0.482422" y="238.714" type="line"/>
      <point x="83.3418" y="88.3311" type="line"/>
      <point x="233.725" y="1.50684" type="line"/>
      <point x="407.374" y="1.50684" type="line"/>
      <point x="233.725" y="1.50684" type="line"/>
    </contour>
  </outline>
</glyph>
<glyph name="V" format="1">
  <advance width="1000"/>
  <unicode hex="0056"/>
  <outline>
    <contour>
      <point x="0" y="800" type="move"/>
      <point x="325.908" y="-6.65039" type="line"/>
      <point x="679.769" y="788.135" type="line"/>
    </contour>
  </outline>
</glyph>
<glyph name="W" format="1">
  <advance width="1000"/>
  <unicode hex="0057"/>
  <outline>
    <contour>
      <point x="26.459" y="848.429" type="line"/>
      <point x="-60.3818" y="761.588" type="line"/>
      <point x="125.627" y="1.34961" type="line"/>
      <point x="167.295" y="-40.3174" type="line"/>
      <point x="254.134" y="46.5225" type="line"/>
      <point x="366.7" y="484.421" type="line"/>
      <point x="394.892" y="494.682" type="line"/>
      <point x="408.572" y="457.094" type="line"/>
      <point x="521.475" y="-4.35547" type="line"/>
      <point x="563.142" y="-46.0225" type="line"/>
      <point x="649.982" y="40.8184" type="line"/>
      <point x="847.185" y="807.985" type="line"/>
      <point x="818.151" y="837.02" type="line"/>
      <point x="731.312" y="750.18" type="line"/>
      <point x="618.749" y="312.281" type="line"/>
      <point x="590.558" y="302.021" type="line"/>
      <point x="576.877" y="339.608" type="line"/>
      <point x="463.974" y="801.058" type="line"/>
      <point x="422.306" y="842.725" type="line"/>
      <point x="335.466" y="755.884" type="line"/>
      <point x="222.9" y="317.984" type="line"/>
      <point x="194.709" y="307.725" type="line"/>
      <point x="181.028" y="345.312" type="line"/>
      <point x="68.126" y="806.762" type="line"/>
    </contour>
    <contour>
      <point x="32.0039" y="905.242" type="line"/>
      <point x="88.5723" y="848.673" type="line"/>
      <point x="102.253" y="811.085" type="line"/>
      <point x="199.056" y="415.44" type="line"/>
      <point x="293.595" y="783.211" type="line"/>
      <point x="399.659" y="889.277" type="line"/>
      <point x="427.851" y="899.538" type="line"/>
      <point x="484.42" y="842.97" type="line"/>
      <point x="498.101" y="805.382" type="line"/>
      <point x="594.904" y="409.737" type="line"/>
      <point x="689.44" y="777.507" type="line"/>
      <point x="795.506" y="883.572" type="line"/>
      <point x="823.696" y="893.833" type="line"/>
      <point x="880.265" y="837.265" type="line"/>
      <point x="893.945" y="799.677" type="line"/>
      <point x="691.854" y="13.4912" type="line"/>
      <point x="585.787" y="-92.5762" type="line"/>
      <point x="557.596" y="-102.836" type="line"/>
      <point x="501.028" y="-46.2666" type="line"/>
      <point x="487.348" y="-8.67969" type="line"/>
      <point x="390.545" y="386.966" type="line"/>
      <point x="296.006" y="19.1953" type="line"/>
      <point x="189.94" y="-86.8701" type="line"/>
      <point x="161.75" y="-97.1309" type="line"/>
      <point x="105.18" y="-40.5625" type="line"/>
      <point x="91.499" y="-2.97461" type="line"/>
      <point x="-102.253" y="788.915" type="line"/>
      <point x="3.8125" y="894.981" type="line"/>
    </contour>
  </outline>
</glyph>
<glyph name="X" format="1">
  <advance width="1000"/>
  <unicode hex="0058"/>
  <outline>
    <contour>
      <point x="474.341" y="400.546" type="line"/>
      <point x="460.66" y="438.134" type="line"/>
      <point x="848.984" y="826.459" type="line"/>
      <point x="827.016" y="848.428" type="line"/>
      <point x="445.963" y="467.376" type="line"/>
      <point x="417.772" y="457.115" type="line"/>
      <point x="26.459" y="848.429" type="line"/>
      <point x="-48.4277" y="773.541" type="line"/>
      <point x="326.216" y="398.897" type="line"/>
      <point x="339.896" y="361.31" type="line"/>
      <point x="-48.4277" y="-27.0156" type="line"/>
      <point x="-26.459" y="-48.9844" type="line"/>
      <point x="354.594" y="332.067" type="line"/>
      <point x="382.785" y="342.328" type="line"/>
      <point x="774.099" y="-48.9844" type="line"/>
      <point x="848.985" y="25.9023" type="line"/>
    </contour>
    <contour>
      <point x="514.485" y="422.761" type="line"/>
      <point x="889.129" y="48.1162" type="line"/>
      <point x="902.81" y="10.5283" type="line"/>
      <point x="796.745" y="-95.5371" type="line"/>
      <point x="768.554" y="-105.798" type="line"/>
      <point x="377.24" y="285.515" type="line"/>
      <point x="-3.81348" y="-95.5371" type="line"/>
      <point x="-32.0039" y="-105.798" type="line"/>
      <point x="-88.5723" y="-49.2295" type="line"/>
      <point x="-102.253" y="-11.6426" type="line"/>
      <point x="286.072" y="376.683" type="line"/>
      <point x="-88.5723" y="751.327" type="line"/>
      <point x="-102.253" y="788.915" type="line"/>
      <point x="3.8125" y="894.981" type="line"/>
      <point x="32.0039" y="905.242" type="line"/>
      <point x="423.317" y="513.929" type="line"/>
      <point x="804.37" y="894.98" type="line"/>
      <point x="832.561" y="905.241" type="line"/>
      <point x="889.129" y="848.673" type="line"/>
      <point x="902.81" y="811.086" type="line"/>
    </contour>
  </outline>
</glyph>
<glyph name="Y" format="1">
  <advance width="1000"/>
  <unicode hex="0059"/>
  <outline>
    <contour>
      <point x="172.722" y="121.142" type="line"/>
      <point x="144.531" y="110.881" type="line"/>
      <point x="-102.253" y="788.915" type="line"/>
      <point x="-74.0625" y="799.175" type="line"/>
    </contour>
    <contour>
      <point x="107.767" y="-8.38281" type="line"/>
      <point x="148.368" y="-48.9844" type="line"/>
      <point x="235.208" y="37.8555" type="line"/>
      <point x="520.209" y="820.885" type="line"/>
      <point x="492.665" y="848.429" type="line"/>
      <point x="405.824" y="761.588" type="line"/>
      <point x="263.047" y="369.309" type="line"/>
      <point x="234.856" y="359.048" type="line"/>
      <point x="74.0625" y="800.824" type="line"/>
      <point x="26.459" y="848.429" type="line"/>
      <point x="-60.3818" y="761.588" type="line"/>
    </contour>
    <contour>
      <point x="72.5742" y="-11.6416" type="line"/>
      <point x="-102.253" y="788.915" type="line"/>
      <point x="3.8125" y="894.981" type="line"/>
      <point x="32.0039" y="905.242" type="line"/>
      <point x="88.5723" y="848.673" type="line"/>
      <point x="237.138" y="440.492" type="line"/>
      <point x="363.952" y="788.914" type="line"/>
      <point x="470.02" y="894.981" type="line"/>
      <point x="498.21" y="905.242" type="line"/>
      <point x="554.779" y="848.673" type="line"/>
      <point x="568.46" y="811.085" type="line"/>
      <point x="277.08" y="10.5283" type="line"/>
      <point x="171.014" y="-95.5371" type="line"/>
      <point x="142.822" y="-105.798" type="line"/>
      <point x="86.2549" y="-49.2295" type="line"/>
    </contour>
  </outline>
</glyph>
<glyph name="Z" format="1">
  <advance width="1000"/>
  <unicode hex="005A"/>
  <outline>
    <contour>
      <point x="33.2041" y="800" type="move"/>
      <point x="580.584" y="800" type="line"/>
      <point x="0" y="-0.556641" type="line"/>
      <point x="547.38" y="-0.556641" type="line"/>
    </contour>
  </outline>
</glyph>
<glyph name="bracketleft" format="1">
  <advance width="1000"/>
  <unicode hex="005B"/>
  <outline>
    <contour>
      <point x="139.055" y="801" type="move"/>
      <point x="-1.94531" y="801" type="line"/>
      <point x="-1.94531" y="0" type="line"/>
      <point x="139.055" y="0" type="line"/>
    </contour>
  </outline>
</glyph>
<glyph name="backslash" format="1">
  <advance width="349"/>
  <unicode hex="005C"/>
  <outline>
    <contour>
      <point x="219.5" y="0" type="move"/>
      <point x="5.97363" y="796.889" type="line"/>
    </contour>
  </outline>
</glyph>
<glyph name="bracketright" format="1">
  <advance width="1000"/>
  <unicode hex="005D"/>
  <outline>
    <contour>
      <point x="0.0546875" y="801" type="move"/>
      <point x="139.055" y="801" type="line"/>
      <point x="139.055" y="0" type="line"/>
      <point x="0.0546875" y="0" type="line"/>
    </contour>
  </outline>
</glyph>
<glyph name="underscore" format="1">
  <advance width="1000"/>
  <unicode hex="005F"/>
  <outline>
    <contour>
      <point x="0" y="1.44434" type="move"/>
      <point x="439.055" y="1.44434" type="line"/>
    </contour>
  </outline>
</glyph>
<glyph name="b" format="1">
  <advance width="538"/>
  <unicode hex="0062"/>
  <outline>
    <contour>
      <point x="396.543" y="0" type="move"/>
      <point x="81.772" y="0" type="line"/>
    </contour>
    <contour>
      <point x="62.5439" y="778.51" type="move"/>
      <point x="63.7715" y="0" type="line"/>
    </contour>
    <contour>
      <point x="62.5439" y="778.51" type="move"/>
      <point x="0" y="800.51" type="line"/>
      <point x="392.544" y="656.51" type="line"/>
      <point x="392.544" y="524.51" type="line"/>
      <point x="296.544" y="448.51" type="line"/>
      <point x="296.544" y="448.51" type="line"/>
      <point x="394.544" y="414.51" type="line"/>
      <point x="518.544" y="310.51" type="line"/>
      <point x="520.544" y="106.51" type="line"/>
      <point x="396.543" y="0" type="line"/>
    </contour>
  </outline>
</glyph>
<glyph name="o" format="1">
  <advance width="1000"/>
  <unicode hex="006F"/>
  <outline>
    <contour>
      <point x="633.021" y="568" type="move"/>
      <point x="327.027" y="805" type="line"/>
      <point x="0" y="578.996" type="line"/>
      <point x="327.027" y="805" type="line"/>
      <point x="0" y="578.996" type="line"/>
      <point x="0" y="298.499" type="line"/>
      <point x="0" y="214" type="line"/>
      <point x="327.027" y="0" type="line"/>
      <point x="510.021" y="130" type="line"/>
      <point x="327.027" y="0" type="line"/>
      <point x="630.021" y="217" type="line"/>
      <point x="633.011" y="537" type="line"/>
    </contour>
  </outline>
</glyph>
<glyph name="u1F422" format="1">
  <advance width="1000"/>
  <unicode hex="1F422"/>
  <outline>
    <contour>
      <point x="329.959" y="905.241" type="line" smooth="yes"/>
      <point x="330.844" y="904.36"/>
      <point x="330.928" y="904.274"/>
      <point x="330.043" y="905.157" type="curve"/>
      <point x="330.043" y="905.157"/>
      <point x="639.636" y="905.242"/>
      <point x="667.882" y="905.242" type="curve"/>
      <point x="882.61" y="690.514" type="line"/>
      <point x="896.291" y="652.926" type="line"/>
      <point x="851.174" y="607.809" type="line"/>
      <point x="863.536" y="573.845" type="line"/>
      <point x="757.469" y="467.777" type="line"/>
      <point x="729.278" y="457.517" type="line"/>
      <point x="673.36" y="457.517" type="line"/>
      <point x="594.279" y="536.598" type="line"/>
      <point x="332.619" y="536.598" type="line"/>
      <point x="263.8" y="467.777" type="line"/>
      <point x="235.608" y="457.517" type="line"/>
      <point x="179.69" y="457.519" type="line"/>
      <point x="123.122" y="514.086" type="line"/>
      <point x="114.928" y="536.599" type="line"/>
      <point x="-32.0049" y="536.599" type="line"/>
      <point x="-88.5723" y="593.168" type="line"/>
      <point x="-102.253" y="630.756" type="line"/>
      <point x="-102.253" y="714.632" type="line"/>
      <point x="3.81348" y="820.698" type="line"/>
      <point x="32.0039" y="830.959" type="line"/>
      <point x="115.881" y="830.959" type="line"/>
      <point x="198.991" y="792.202" type="line"/>
      <point x="301.031" y="894.243" type="line" smooth="yes"/>
    </contour>
    <contour>
      <point x="333.38" y="857.393" type="line"/>
      <point x="224.899" y="748.912" type="line"/>
      <point x="196.709" y="738.651" type="line"/>
      <point x="101.37" y="783.11" type="line"/>
      <point x="35.4238" y="783.11" type="line"/>
      <point x="-60.3818" y="687.305" type="line"/>
      <point x="-60.3818" y="627.335" type="line"/>
      <point x="-17.4941" y="584.446" type="line"/>
      <point x="160.144" y="584.447" type="line"/>
      <point x="173.824" y="546.859" type="line"/>
      <point x="163.266" y="536.301" type="line"/>
      <point x="194.2" y="505.366" type="line"/>
      <point x="232.188" y="505.365" type="line"/>
      <point x="301.009" y="574.186" type="line"/>
      <point x="329.199" y="584.446" type="line"/>
      <point x="608.789" y="584.446" type="line"/>
      <point x="687.87" y="505.365" type="line"/>
      <point x="725.858" y="505.365" type="line"/>
      <point x="810.862" y="590.37" type="line"/>
      <point x="798.501" y="624.333" type="line"/>
      <point x="842.466" y="668.3" type="line"/>
      <point x="653.372" y="857.394" type="line"/>
    </contour>
  </outline>
</glyph>
